<?xml version="1.0" encoding="UTF-8"?>
<svg width="32px" height="32px" viewBox="0 0 32 32" version="1.1" xmlns="http://www.w3.org/2000/svg" xmlns:xlink="http://www.w3.org/1999/xlink">
    <title>Slice 1</title>
    <g id="Page-1" stroke="none" stroke-width="1" fill="none" fill-rule="evenodd">
        <g id="dislike_test">
            <g id="Group-13" fill="#E6E6E6" fill-rule="nonzero">
                <g id="Group-6">
                    <circle id="Oval-Copy" cx="16" cy="16" r="16"></circle>
                </g>
            </g>
            <g id="Group" transform="translate(16.000000, 16.914286) scale(-1, 1) rotate(-180.000000) translate(-16.000000, -16.914286) translate(10.971429, 11.885714)">
                <rect id="Rectangle" x="0" y="0" width="10.0571429" height="10.0571429"></rect>
                <g id="Group-Copy" opacity="0.7" transform="translate(0.000000, 0.382661)" fill="#000000" fill-rule="nonzero">
                    <g id="if_icon_5_thumb_down_329407" transform="translate(5.021927, 4.657649) scale(-1, 1) rotate(-180.000000) translate(-5.021927, -4.657649) ">
                        <path d="M2.77671958,4.8033048 C3.61761896,5.01396464 4.13900441,5.48169875 4.53756614,6.16953733 C5.04550265,7.04613511 4.70687831,8.0575941 4.86912676,8.22617061 C5.10172886,8.46784469 5.68408354,8.39065914 6.02751323,7.72044114 C6.26938033,7.24842693 6.1968254,6.27068323 5.89206349,5.49523134 C6.94384938,5.49523134 7.63238558,5.49523134 7.95767198,5.49523134 C8.31006553,5.49523134 8.86050767,5.45667745 9.04126985,4.92207124 C9.20794694,4.42912189 9.06179434,3.51326988 8.73650794,2.73057675 C8.35163258,1.80450274 8.09312171,0.944028391 7.32548243,0.910313096 L4.86912676,0.910313096 L2.77671958,0.910313096 L2.77671958,0 L4.3243821,0 L7.73128117,0 C8.87195766,0.0674305997 9.10228082,1.10170684 9.58306875,2.25856255 C9.98941799,3.23630625 10.1637693,4.60971445 9.95555553,5.22550894 C9.72974665,5.89334136 8.97354499,6.40554445 8.53333335,6.40554445 C8.12698411,6.40554445 7.60776016,6.40554445 6.97566138,6.40554445 C7.28042329,7.78787171 6.5693122,9.20391428 5.28253968,9.30506022 C4.53908448,9.36349901 4.16507937,9.17019903 3.9957672,8.76561538 C3.7922514,8.27929979 4.3005291,7.41700344 3.62328042,6.40554445 C3.14472057,5.69082371 2.77671958,5.69752313 2.77671958,5.69752313 L2.77671958,4.8033048 Z" id="Combined-Shape"></path>
                        <path d="M0,0 L2.81058201,0 L2.81058201,5.69752313 L0,5.69752313 L0,0 Z M0.914285711,0.910313096 L0.914285711,4.78721004 L1.8962963,4.78721004 L1.8962963,0.910313096 L0.914285711,0.910313096 Z" id="Combined-Shape"></path>
                    </g>
                </g>
            </g>
        </g>
    </g>
</svg>