<?xml version="1.0" encoding="UTF-8"?>
<svg width="32px" height="32px" viewBox="0 0 32 32" version="1.1" xmlns="http://www.w3.org/2000/svg" xmlns:xlink="http://www.w3.org/1999/xlink">
    <title>Slice 1</title>
    <g id="Page-1" stroke="none" stroke-width="1" fill="none" fill-rule="evenodd">
        <g id="like">
            <g id="Group-13" fill="#E6E6E6" fill-rule="nonzero">
                <g id="Group-6">
                    <circle id="Oval-Copy" cx="16" cy="16" r="16"></circle>
                </g>
            </g>
            <g id="Group" transform="translate(10.880000, 10.880000)">
                <rect id="Rectangle" x="5.68434189e-16" y="0" width="10.24" height="10.24"></rect>
                <g id="Group-Copy" opacity="0.7" transform="translate(0.000000, 0.389617)" fill="#000000" fill-rule="nonzero">
                    <g id="if_icon_5_thumb_down_329407" transform="translate(5.113235, 4.742334) scale(-1, 1) rotate(-180.000000) translate(-5.113235, -4.742334) translate(0.000000, 0.000000)">
                        <path d="M2.82720539,4.89063762 C3.68339385,5.10512763 4.21425904,5.581366 4.62006734,6.28171074 C5.13723906,7.17424666 4.79245791,8.20409581 4.95765634,8.37573734 C5.19448756,8.6218055 5.78743051,8.54321658 6.13710438,7.8608128 C6.38336906,7.38021651 6.30949495,6.38469565 5.99919192,5.59514463 C7.07010118,5.59514463 7.77115622,5.59514463 8.10235693,5.59514463 C8.46115763,5.59514463 9.02160781,5.55588977 9.20565658,5.01156344 C9.37536416,4.50965138 9.22655424,3.57714751 8.89535354,2.7802236 C8.50348045,1.83731188 8.24026938,0.961192544 7.45867302,0.926864243 L4.95765634,0.926864243 L2.82720539,0.926864243 L2.82720539,0 L4.40300723,0 L7.87184992,0 C9.03326598,0.0686566106 9.26777683,1.12173787 9.75730637,2.29962733 C10.1710438,3.29514818 10.3485651,4.69352744 10.1365656,5.32051819 C9.90665114,6.00049302 9.13670035,6.5220089 8.68848486,6.5220089 C8.27474746,6.5220089 7.74608307,6.5220089 7.10249158,6.5220089 C7.41279462,7.92946938 6.68875424,9.37125818 5.37858586,9.47424314 C4.62161329,9.53374445 4.24080808,9.33692992 4.06841751,8.92499021 C3.86120142,8.42983251 4.37872054,7.55185805 3.68915825,6.5220089 C3.20189731,5.79429324 2.82720539,5.80111446 2.82720539,5.80111446 L2.82720539,4.89063762 Z" id="Combined-Shape"></path>
                        <path d="M0,0 L2.8616835,0 L2.8616835,5.80111446 L0,5.80111446 L0,0 Z M0.930909088,0.926864243 L0.930909088,4.87425022 L1.93077441,4.87425022 L1.93077441,0.926864243 L0.930909088,0.926864243 Z" id="Combined-Shape"></path>
                    </g>
                </g>
            </g>
        </g>
    </g>
</svg>